<?xml version="1.0" encoding="utf-8"?>
<!-- Generator: Adobe Illustrator 24.3.0, SVG Export Plug-In . SVG Version: 6.00 Build 0)  -->
<svg version="1.1" xmlns="http://www.w3.org/2000/svg" xmlns:xlink="http://www.w3.org/1999/xlink" x="0px" y="0px"
	 viewBox="0 0 1408.3 1307.7" style="enable-background:new 0 0 1408.3 1307.7;" xml:space="preserve">
<style type="text/css">
	.st0{display:none;enable-background:new    ;}
	.st1{opacity:0.4314;}
	.st2{display:inline;opacity:0.2784;}
	.st3{display:none;}
	.st4{display:inline;fill:#281700;stroke:#000000;stroke-width:15;stroke-miterlimit:10;}
	.st5{fill:#FFFFFF;}
	.st6{fill:#FFF6E9;}
	.st7{fill:#FFAA24;}
	.st8{fill:none;stroke:#020202;stroke-width:4;stroke-miterlimit:10;}
	.st9{display:inline;}
	.st10{fill:#020202;}
	.st11{opacity:0.38;fill:#FFFFFF;stroke:#000000;stroke-width:15;stroke-miterlimit:10;}
</style>
<g id="Artboard_1_1_" class="st0">
	<g id="Layer_2_copy_3_xA0_Image_1_">
		
			<image style="display:inline;overflow:visible;opacity:0.44;" width="631" height="486" id="Layer_2_copy_3_xA0_Image" xlink:href="6DE8A48F5ABBC3BB.png"  transform="matrix(1 0 0 1 262.4607 728.3011)">
		</image>
	</g>
	<g id="Layer_2_copy_xA0_Image_1_" class="st1">
		
			<image style="display:inline;overflow:visible;" width="684" height="516" id="Layer_2_copy_xA0_Image" xlink:href="6DE8A48F5ABBC3B9.png"  transform="matrix(1 0 0 1 243.4607 697.3011)">
		</image>
	</g>
	<g id="Layer_2_copy_2_xA0_Image_1_" class="st2">
		
			<image style="overflow:visible;" width="905" height="476" id="Layer_2_copy_2_xA0_Image" xlink:href="6DE8A48F5ABBC3BF.png"  transform="matrix(1 0 0 1 215.4607 693.3011)">
		</image>
	</g>
</g>
<g id="Layer_9" class="st3">
	<rect x="-66.5" y="-53.6" class="st4" width="1531.9" height="1397.5"/>
</g>
<g id="Layer_5">
	<g id="XMLID_3_">
		<g>
			<path class="st5" d="M565.6,1037.8c-5.5-1.1-11.6-0.5-14.1,3.8c-1,3,0,8,2,10c5,4,16,4,18-2
				C574.3,1043.8,570.5,1040.1,565.6,1037.8z"/>
			<path d="M587.6,1050.1c-2.9-6.7-6.9-13.2-13-17.3c-6-4.1-14.3-5.4-20.7-1.9c-3.3,1.9-5.9,4.9-8.2,8c-5,6.7-22.6,29-13.7,36.7
				c2.3,2,5.3,2.8,8.3,3.4c12.5,2.5,25.6,2.1,38-1.2c2.4-0.6,4.8-1.4,6.8-2.8c3.7-2.6,5.5-7.3,5.6-11.8
				C590.9,1058.6,589.4,1054.2,587.6,1050.1z M571.5,1049.5c-2,6-13,6-18,2c-2-2-3-7-2-10c2.5-4.2,8.7-4.9,14.1-3.8
				c-2-0.9-4.1-1.7-6.1-2.2c2,0.6,4.1,1.3,6.1,2.2c1,0.2,2,0.5,2.9,0.8c-0.9-0.3-1.9-0.6-2.9-0.8
				C570.5,1040.1,574.3,1043.8,571.5,1049.5z"/>
			<path class="st6" d="M1027.1,815.4c-1.2-0.7-9.7-5.3-18.8-2.6c-3.6,1.1-7,3.3-9.8,6.3c1.6,4.4,3.8,8.6,6.9,12.4
				c8.6,11.2,23.1,11.3,35.3,5.3C1039.4,829.6,1036,820.4,1027.1,815.4z"/>
			<path class="st7" d="M1005.5,831.5c-3.1-3.8-5.4-8-6.9-12.4c-4.5,4.8-7.7,11.6-8.9,19.6c19.9,13.7,32.4,29.7,38.9,39
				c3.1-2.9,6.4-6.8,8.9-11.9c1.2-2.4,4.5-9.7,4.3-19.7c0-1.6-0.1-5.1-0.9-9.3C1028.6,842.8,1014.1,842.7,1005.5,831.5z"/>
			<path class="st7" d="M617.1,900c9.2,7.2,22.3,18.6,23.8,31.2c-15.7,1-33.8,3.4-51.8,8.7c-4.4-8.3-4-19.2-0.9-28.2
				c1.7-4.8,4.3-9.4,8.3-12.5c1.7-1.3,3.7-2.4,5.8-3c2.8-0.8,5.8-0.9,8.5,0C613.1,897,615.2,898.4,617.1,900z"/>
			<path class="st6" d="M646.5,1111.5c-50-13-100,8-151,2c-5.1-0.6-11.1-1.3-16-3.8c-0.3,3.6-1.7,7.1-4,9.8
				c-5.6,5.6-13.3,9.8-20.8,8.9c4.9,4.4,10.4,8.4,15.3,12.5c14.2,11.9,30.8,21,48.9,25.5c17.4,4.3,35.1,2.7,52.8,1.8
				c18.6-0.9,34.6-2.8,46.6-4.6c0.6,0.7,1.1,1.3,1.7,2C635.8,1151.8,647.2,1132.6,646.5,1111.5z"/>
			<path class="st6" d="M660.8,1206.3c-3.1,4.1-6.6,7.9-8.4,13.6c-1.5,5-1,10.7,2.3,14.8c4.2,5.2,11.5,6.3,18.1,7.1
				c16.3,1.9,24.4,2.1,34.2-12.1c1.4-2,2.7-4,4-6C701.6,1206.1,680.1,1201.4,660.8,1206.3z"/>
			<path d="M472.5,1103.5c1.8,2.8,4.1,4.7,6.8,6.1c-1.9-8.8-8.6-16.4-17-21.2c-0.3,0.9-0.5,1.9-0.8,2.8c-6.3-2-13.2-2.1-16.9,2.4
				c-2.2,2.8-2.9,6.6-2.9,10.1c0.1,10.6,5.8,18.1,12.9,24.6c7.5,0.9,15.2-3.3,20.8-8.9c2.2-2.5,3.5-5.8,3.9-9.2
				c0-0.2-0.1-0.5-0.1-0.7C476.6,1108.3,474.2,1106.3,472.5,1103.5z"/>
			<path class="st7" d="M479.4,1110.3c0-0.2,0.1-0.4,0.1-0.6c-0.1,0-0.1-0.1-0.2-0.1C479.3,1109.9,479.4,1110.1,479.4,1110.3z"/>
			<path class="st7" d="M868.6,1171.2C868.5,1171.2,868.5,1171.3,868.6,1171.2l-0.1,0.3C868.5,1171.4,868.5,1171.3,868.6,1171.2z"/>
			<path class="st6" d="M887.9,1165.2c-3.3,1.2-7.4,0.8-10.9,0.9c0.2,0.6,0.3,1.1,0.5,1.7c-3.2,1-6.1,2.1-8.9,3.4
				c0,0.1-0.1,0.2-0.1,0.3v-0.3c-14.2,6.6-22.6,17.1-22.5,27c0.1,9.2,7.5,17.5,14.5,21.4c16.7,9.2,37.8-2.4,61.5-15.4
				c11.2-6.1,14.7-9.9,17.1-13.7c3.2-5.2,3.6-9.4,6.3-16.2c-9.3-3.6-18.5-7.3-27.9-10.8C907.9,1160.7,897.5,1163.3,887.9,1165.2z"/>
			<path class="st7" d="M1057.9,971.8c-0.3-15.3-1.6-52.2-26.5-89.7c-0.8-1.2-1.8-2.6-2.9-4.3c-6.5-9.3-19-25.3-38.9-39
				c-8.6-5.9-18.5-11.4-30-15.7c-47-17.7-88.9-4.5-108.5,1.7c-6.4,2-23.5,7.8-62.4,32.5c-25,15.9-58.5,39.3-95.7,72.1
				c-2.6,0.7-5.2,1.6-7.8,2.6c-7.5-0.8-24-2-44.4-0.8c-15.7,1-33.8,3.4-51.8,8.7c-19,5.6-37.9,14.2-54.2,27.6
				c-8,6.6-12.7,12.2-20.5,21.4c-30.7,36.2-45,73.8-52.2,99.6c8.4,4.8,15.1,12.4,17,21.2c0.1,0,0.1,0.1,0.2,0.1
				c0.5-5.8-1.8-11.8-8-14.2c6.2,2.5,8.5,8.4,8,14.2c4.9,2.5,10.9,3.1,16,3.8c51,6,101-15,151-2c0.7,21.1-10.7,40.3-26.5,54.2
				c9.8,11.2,24.8,24.1,45.8,30.6c-0.9,4-2.8,7.1-4.9,10c19.2-4.8,40.8-0.1,50.2,17.4c5.6-8.7,10.7-17.7,15.1-27
				c-0.2,0.3-0.4,0.5-0.6,0.8c0.2-0.3,0.4-0.5,0.6-0.8c1.6-3.3,3.1-6.7,4.5-10.1c0.3-0.2,0.6-0.3,1-0.5c0.4-1.2,0.7-2.4,0.9-3.6
				c4.8-21.3,14.3-37.9,18.6-57.9c-8.4,8.9-16,18.3-22.6,27.9c6.5-9.6,14.1-19,22.6-27.9c0.1-0.7,0.3-1.4,0.4-2.1c2-7,4-13,4-19
				c0,6-2,12-4,19c-0.1,0.7-0.3,1.4-0.4,2.1c27.3-28.7,63.7-51.4,102.7-53.2c1.2-4,2.8-7.9,4.7-11.9c-1.9,3.9-3.5,7.9-4.7,11.9
				c4.2-0.2,8.4-0.2,12.7,0.1c-4.3-0.3-8.5-0.3-12.7-0.1c-7.2,23.1-3.9,46.7,5.7,68.2c0.2,0,0.4-0.1,0.6-0.1
				c4.4,6.8,8.2,8.4,12.4,16c2,3.6,3.5,7.2,4.5,10.6c3.6-0.1,7.6,0.2,10.9-0.9c-0.5,0.1-1,0.2-1.4,0.3c0.5-0.1,0.9-0.2,1.4-0.3
				c0.5-0.2,1.1-0.4,1.6-0.7c-0.5,0.3-1,0.5-1.6,0.7c9.6-2,20-4.6,29.6-1.7c9.4,3.5,18.6,7.2,27.9,10.8c0.8-2,1.8-4.3,3.1-6.9
				c2.5-4.9,4.8-8.2,6.8-11.1c12.7-18.3,30.8-33.3,30.8-33.3c19.2-16,42.5-45.2,55.5-72.6C1045.4,1042.6,1058.8,1012.7,1057.9,971.8
				z M585.2,1075c-2,1.4-4.4,2.2-6.8,2.8c-12.4,3.2-25.5,3.7-38,1.2c-3-0.6-6-1.4-8.3-3.4c-8.9-7.6,8.8-30,13.7-36.7
				c2.3-3.1,4.8-6.1,8.2-8c6.3-3.6,14.7-2.3,20.7,1.9c6,4.1,10.1,10.6,13,17.3c1.8,4.1,3.2,8.6,3.1,13.1
				C590.7,1067.7,588.8,1072.3,585.2,1075z"/>
			<path class="st6" d="M853.8,1071.4c-39,1.8-75.4,24.5-102.7,53.2c-4.2,20-13.7,36.6-18.6,57.9c-0.2,1.2-0.5,2.4-0.9,3.6
				c25.5-13.2,47.1-22.1,63.1-28c15.6-5.8,26.6-9,30.8-10.2c12.4-3.6,23.8-6.2,34-8.2C849.9,1118.1,846.5,1094.4,853.8,1071.4z"/>
		</g>
		<g>
			<path class="st8" d="M892.1,1164.9c-5.3,0.6-10.2,1.6-14.7,2.9c-19.6,6-31.5,18.6-31.5,30.4c0.1,9.2,7.5,17.5,14.5,21.4
				c16.7,9.2,37.8-2.4,61.5-15.4c11.2-6.1,14.7-9.9,17.1-13.7c4.2-6.7,3.6-11.7,9.4-23.1c2.5-4.9,4.8-8.2,6.8-11.1
				c12.7-18.3,30.8-33.3,30.8-33.3c19.2-16,42.5-45.2,55.5-72.6c3.7-7.8,17.1-37.7,16.2-78.6c-0.3-15.3-1.6-52.2-26.5-89.7
				c-0.8-1.2-1.8-2.6-2.9-4.3c-6.5-9.3-19-25.3-38.9-39c-8.6-5.9-18.5-11.4-30-15.7c-47-17.7-88.9-4.5-108.5,1.7
				c-6.4,2-23.5,7.8-62.4,32.5c-25,15.9-58.5,39.3-95.7,72.1"/>
			<path class="st8" d="M589.1,939.9c-19,5.5-37.9,14.2-54.2,27.6c-8,6.6-12.7,12.2-20.5,21.4c-31.8,37.5-46,76.5-52.9,102.3
				c0,0.1,0,0.1,0,0.2"/>
			<path class="st8" d="M685.3,932c-7.4-0.8-23.9-2-44.4-0.8"/>
			<path class="st8" d="M877.4,1167.9c-1-3.9-2.6-8.1-5-12.3c-4.2-7.6-8-9.2-12.4-16c-0.7-1.1-1.4-2.3-2.1-3.6
				c-6.5-12.2-8.2-22.7-8.5-24.8c-1.8-11.8-0.1-21.4,1.7-29.9c6.2-28.1,17-55.1,23.1-69.2"/>
			<path class="st8" d="M472.6,1097.4c-2.4-2.3-6.6-4.7-11.1-6.2c-6.3-2-13.2-2.1-16.9,2.4c-2.2,2.8-2.9,6.6-2.9,10.1
				c0.2,17.9,16.1,27,28.3,37.2c14.2,11.9,30.9,21,48.9,25.5c17.4,4.3,35.1,2.7,52.8,1.8c18.6-0.9,34.6-2.8,46.6-4.6
				c7.6-1.2,13.5-2.3,17.5-3.1c34.7-6.9,44.2-13.5,48.7-17.1c12.4-9.8,18.8-21.6,21.4-26.5c8.5-16.1,10-31.1,10.3-39.3"/>
			<path class="st8" d="M618.3,1163.7c9.8,11.6,25.3,25.7,47.5,32.6"/>
			<path class="st8" d="M665.7,1166.6c0.2,8.6,1.1,17.6,0.6,26.2c-0.1,1.3-0.2,2.4-0.5,3.5c-2.1,9.8-10.3,13.8-13.3,23.6
				c-1.5,5-1,10.7,2.3,14.8c4.2,5.2,11.5,6.3,18.1,7.1c16.3,1.9,24.4,2.1,34.2-12.1c9.4-13.6,17.3-28,23.6-43
				c2.9-6.9,5.5-14,7.7-21.3c7.7-25.1,15-50.3,22.2-75.6"/>
			<path class="st8" d="M730.6,1186.6c26-13.4,47.8-22.5,64.1-28.5c15.6-5.8,26.6-9,30.8-10.2c12.6-3.6,24.3-6.3,34.6-8.3"/>
			<path class="st8" d="M989.6,838.8c2-13.1,9.4-23.1,18.7-25.9c9.1-2.8,17.6,1.9,18.8,2.6c14,7.9,14.4,26.4,14.5,30.8
				c0.2,10-3.1,17.3-4.3,19.7c-2.6,5.1-5.8,9.1-8.9,11.9"/>
			<path class="st8" d="M640.9,931.2c-15.7,1-33.8,3.4-51.8,8.7c-4.4-8.3-4-19.2-0.9-28.2c1.7-4.8,4.3-9.4,8.3-12.5
				c1.7-1.3,3.7-2.4,5.8-3c2.8-0.8,5.8-0.9,8.5,0c2.3,0.8,4.4,2.3,6.3,3.8C626.3,907.1,639.4,918.6,640.9,931.2z"/>
			<path class="st8" d="M634.6,981c4.5-15.9,16.8-28.6,30.4-38c6.3-4.4,13.2-8.2,20.3-11c2.5-1,5.1-1.8,7.8-2.6
				c2.9-0.8,5.9-1.4,8.9-1.7c13.4-1.6,27.7,1.5,37.8,10.5c3.5,3.1,6.6,6.9,8,11.4c1.3,3.9,1.4,8.1,1.1,12.2
				c-2.1,31.4-25.7,60.3-56.1,68.5"/>
			<path class="st8" d="M654.2,985.6c6.5-11.7,18.2-20.3,31.3-23.2c13.1-2.9,27.3,0.1,38.1,7.9c0.7,0.5,1.4,1.1,1.7,1.9
				c0.2,0.8-0.4,1.9-1.2,1.8"/>
			<path class="st8" d="M702.3,977.2c-0.6,11.9-7.7,23.2-18.1,29c-0.8,0.5-2.2,0.7-2.4-0.3"/>
			<path class="st8" d="M587.6,1050.1c-2.9-6.7-6.9-13.2-13-17.3c-6-4.1-14.3-5.4-20.7-1.9c-3.3,1.9-5.9,4.9-8.2,8
				c-5,6.7-22.6,29-13.7,36.7c2.3,2,5.3,2.8,8.3,3.4c12.5,2.5,25.6,2.1,38-1.2c2.4-0.6,4.8-1.4,6.8-2.8c3.7-2.6,5.5-7.3,5.6-11.8
				C590.9,1058.6,589.4,1054.2,587.6,1050.1z M571.5,1049.5c-2,6-13,6-18,2c-2-2-3-7-2-10c2.5-4.2,8.7-4.9,14.1-3.8
				c-2-0.9-4.1-1.7-6.1-2.2c2,0.6,4.1,1.3,6.1,2.2c1,0.2,2,0.5,2.9,0.8c-0.9-0.3-1.9-0.6-2.9-0.8
				C570.5,1040.1,574.3,1043.8,571.5,1049.5z"/>
			<path class="st8" d="M565.6,1037.8c-5.5-1.1-11.6-0.5-14.1,3.8c-1,3,0,8,2,10c5,4,16,4,18-2
				C574.3,1043.8,570.5,1040.1,565.6,1037.8z"/>
		</g>
	</g>
</g>
<g id="Layer_6" class="st3">
	<g id="XMLID_1_" class="st9">
		<g>
			<path class="st7" d="M981.2,1050.2c-2-8.8-3.2-18.6-0.5-26.5c-2.7,1-5,2.7-7.2,4.6c-1.3,1.1-2.5,2.3-3.7,3.5
				c1.7,6.5,3,13.6,3.7,21.3c1,10.4,0.8,19.1,0,26c6.4-2.8,13.3-5.6,19.1-9.4C987.3,1064.4,983.2,1057.2,981.2,1050.2z"/>
			<path class="st6" d="M1004.6,1057.2c4.7-9.6,2.2-22.2-5.8-29.2c-4.7-4.2-11.6-6.5-17.6-4.5c-0.2,0.1-0.3,0.1-0.5,0.2
				c-2.6,7.9-1.5,17.6,0.5,26.5c2,7,6,14.2,11.5,19.6C997.7,1066.5,1002,1062.6,1004.6,1057.2z"/>
			<path class="st7" d="M624.3,776.4c0.2,11.6-4.5,23-12.4,31.5c-1.6-1.6-3.3-3.3-5.2-5.2c-9.3-9-19.8-18.9-34.9-27.8
				c3.7-5.5,8.3-10.4,13.7-14.2c6.4-4.6,14.2-7.8,21.9-6.7c4.2,0.6,8.2,2.5,11.1,5.6C622.8,764,624.3,770.3,624.3,776.4z"/>
			<path class="st10" d="M492,813.6c-0.2-2.1-0.8-4.4-2.3-5.9c-1.3-1.2-3.1-1.7-4.8-2.2c-10-2.5-52.2-10.2-53.3,7.5
				c-0.3,4.4,2.1,8.5,4.6,12c5.6,7.8,12.8,14.6,21.2,19.3c5.5,3.1,12.1,5.2,18.1,3.2c4.3-1.4,7.6-4.8,10.1-8.5
				C490.7,831.7,493,822.5,492,813.6z M476.2,826.2c-3,4-11,0-13-6c-1-5-1-10,4-12c3.4-0.8,6.8,1.2,9.6,3c-1.1-1.9-2.7-3.7-4.6-5
				c1.9,1.4,3.4,3.1,4.6,5c0.5,0.3,1,0.7,1.4,1c-0.5-0.3-0.9-0.6-1.4-1C479.8,816.3,479.9,822.5,476.2,826.2z"/>
			<path class="st5" d="M467.2,808.2c-5,2-5,7-4,12c2,6,10,10,13,6c3.6-3.6,3.6-9.9,0.6-15C474,809.3,470.6,807.3,467.2,808.2z"/>
			<path d="M378.8,758.2c-0.7,0.2-1.5,0.4-2.2,0.7c-9.1-8.3-27.8-11.5-35.8-1.2c-3.1,4-4,9.4-3.8,14.5c0,0.9,0.1,1.8,0.1,2.8
				c6.3,11.7,15.6,21.4,30.1,17.2c5.7-0.9,9.5-5.5,12.5-10.2c-2.3-4.5-4.5-9.1-6.5-13.8c2,4.7,4.2,9.3,6.5,13.8
				c0.2-0.3,0.3-0.6,0.5-0.8C386.6,772.4,384.1,765,378.8,758.2z"/>
			<path class="st6" d="M612.2,1180.2c-10.4,3.5-19,11.8-23.8,22c1,2.4,2.1,4.7,3.5,6.9c5.1,7.7,15.5,18.9,25.2,14.9
				c10.8-4.4,23-10.4,25.8-21.8c1.8-7.3-1-14.9-4-21.9c-0.1-0.3-0.2-0.5-0.3-0.8C630.3,1176.4,619.6,1177.7,612.2,1180.2z"/>
			<path class="st6" d="M780.2,1206.2c-16.7-14.3-39.7-17.9-61.5-16.7c0.5,0.3,1,0.6,1.6,0.9c-0.8,0.2-1.6,0.3-2.4,0.5
				c-9,1.7-3.1,1.1-32.5,8.5c-9,2.3-13.8,3.4-18.8,7.7c-2.2,1.8-9.4,8-9.4,17.1c0,8.8,6.9,14.8,8.6,16.2c3.3,2.9,11,8.2,43.6,6
				c17.7-1.2,29.1-2,44.5-6.8c10.8-3.4,21.7-9.3,42.3-20.6C794.7,1212.9,784.2,1210.2,780.2,1206.2z"/>
			<path class="st6" d="M616.2,1097.2c-4.2,14.2-1.4,34.6,8.4,50.3c-0.1-0.2-0.2-0.5-0.3-0.7c18.9,9.6,39.3,16.1,60.3,19.3
				c-13.3-17-12.9-41.5-19.4-60.9C658.2,1087.2,623.2,1077.2,616.2,1097.2z"/>
			<path class="st6" d="M436.2,919.2c12-5,22-22,14-34c-22.3-36.5-51.6-66.7-70.5-103.2c-2.9,4.7-6.8,9.2-12.5,10.2
				c-14.5,4.1-23.8-5.6-30.1-17.2c0.6,10.3,2.5,20.1,2.7,30.5c0.6,33.7,20.6,59.3,40.3,85.3c8.4,11,16.8,21.7,25.9,31.9
				C416.4,923,426.6,922.4,436.2,919.2z"/>
			<path class="st7" d="M973.6,1053.2c-0.8-7.7-2.1-14.8-3.7-21.3c-4.4-17.5-11.1-30.9-15.9-40.3c-17.1-33.4-38.6-53.8-50.4-65
				c-14.1-13.2-30.7-28.5-57.3-39.3c-3.2-1.3-15.5-6.2-32.5-9.4c-26.9-5.1-34.3-0.1-69.3-0.8c-31.8-0.7-54.6-1.4-77-15.4
				c-7.9-5-13.7-10.2-23.9-19.7c-16.8-15.4-19.3-21.5-31.5-34.1c-1.6-1.6-3.3-3.3-5.2-5.2c-9.3-9-19.8-18.9-34.9-27.8
				c-1.7-1-3.5-2-5.3-3c-9.8-5.2-19.6-8.3-39.3-14.5c-32.7-10.3-49-11.6-54.7-12c-3-0.2-10.2-0.5-21.4,0c-16.3,0.8-41,3.6-72.3,12.9
				c5.3,6.7,7.8,14.2,1.4,22.9c-0.2,0.3-0.3,0.6-0.5,0.8c18.9,36.5,48.3,66.7,70.5,103.2c8,12-2,29-14,34
				c-9.6,3.2-19.9,3.8-30.2,3.4c8.5,9.6,17.6,18.7,27.6,27.2c13.5,11.6,32.8,18.8,52.2,20.2c3.5,6.5,7.1,13.1,11.2,19.4
				c8.3,13,15.8,26.8,18.3,42.2c1.8,11,1,22.3,1.7,33.4c1.5,24.5,10.2,48.5,24.9,68.2c13.9,18.7,33.2,34.1,41.8,55.8
				c1.7,4.3,3,8.9,4.7,13.2c4.9-10.1,13.4-18.5,23.8-22c7.4-2.5,18.1-3.8,26.2-0.7c-4.6-10.7-9.6-21.2-13.9-31.9
				c-9.8-15.7-12.6-36.1-8.4-50.3c7-20,42-10,49,8c6.5,19.4,6.1,43.9,19.4,60.9c0.8,0.1,1.6,0.2,2.4,0.4c4.5,4.7,9.6,8.3,18,14.2
				c3.8,2.6,8.3,5.7,13.6,8.9c21.8-1.2,44.8,2.4,61.5,16.7c4,4,14.5,6.7,15.9,12.9c1-0.5,2-1.1,3-1.7c22-12.1,21.7-13.2,32.5-18
				c18.6-8.3,22.5-6.4,41.9-13.7c12.2-4.6,30.1-11.5,48.7-26.5c16.2-13,25.9-26.6,32.5-35.9c6.8-9.5,11-15.6,14.5-24.8
				c0.8-2.1,3.2-8.6,4.3-19.3v0C974.4,1072.3,974.6,1063.6,973.6,1053.2z M485.7,839.1c-2.5,3.7-5.9,7.1-10.1,8.5
				c-6,2-12.6-0.2-18.1-3.2c-8.4-4.7-15.6-11.5-21.2-19.3c-2.6-3.6-4.9-7.7-4.6-12c1.1-17.7,43.2-9.9,53.3-7.5
				c1.7,0.4,3.5,0.9,4.8,2.2c1.6,1.5,2.1,3.8,2.3,5.9C493,822.5,490.7,831.7,485.7,839.1z"/>
		</g>
		<g>
			<path class="st8" d="M973.6,1079.2c-1.2,10.7-3.5,17.2-4.3,19.3c-3.5,9.2-7.8,15.2-14.5,24.8c-6.6,9.3-16.3,22.9-32.5,35.9
				c-18.6,15-36.6,21.9-48.7,26.5c-19.4,7.3-23.3,5.4-41.9,13.7c-10.8,4.8-10.5,5.9-32.5,18c-22.6,12.4-33.9,18.6-45.3,22.2
				c-15.3,4.9-26.8,5.6-44.5,6.8c-32.6,2.2-40.3-3.1-43.6-6c-1.6-1.4-8.5-7.4-8.6-16.2c0-9.1,7.2-15.3,9.4-17.1
				c5-4.3,9.8-5.4,18.8-7.7c29.4-7.5,23.5-6.8,32.5-8.6c0.8-0.2,1.6-0.3,2.4-0.4c14.7-2.8,23.1-4.2,34.4-3c8,0.9,14.4,2.8,18.8,4.3"
				/>
			<path class="st8" d="M376.6,758.9c32.4-9.8,57.9-12.7,74.5-13.5c11.2-0.5,18.4-0.2,21.4,0c5.7,0.4,22,1.7,54.7,12
				c19.7,6.2,29.6,9.3,39.3,14.5c1.8,1,3.6,2,5.3,3c15.1,8.9,25.6,18.8,34.9,27.8c1.9,1.9,3.7,3.6,5.2,5.2
				c12.2,12.6,14.8,18.7,31.5,34.1c10.2,9.4,16,14.7,23.9,19.7c22.4,14,45.2,14.7,77,15.4c35,0.8,42.3-4.2,69.3,0.9
				c17,3.2,29.2,8.1,32.5,9.4c26.6,10.8,43.2,26.2,57.3,39.3c11.9,11.1,33.3,31.5,50.4,65c4.8,9.3,11.5,22.7,15.9,40.3
				c1.7,6.5,3,13.6,3.7,21.3c1,10.4,0.8,19.1,0,26"/>
			<path class="st8" d="M724.7,1014.7c-5.3,2.4-12.8,6.3-20.5,12.8c-13.8,11.6-20.2,24.7-23.9,32.5c-5.9,12.3-8.1,22.6-9.4,29.1
				c-2.5,12.4-5.2,25.5-1.7,41.9c1.1,5.4,4.1,18.8,14.5,31.6c1.1,1.4,2.2,2.6,3.3,3.8c4.5,4.7,9.6,8.3,18,14.2
				c4.1,2.9,9.2,6.2,15.2,9.8"/>
			<path class="st8" d="M385.2,774.1c-1.5-3.9-3.1-7.9-5.4-11.5c-0.8-1.3-1.9-2.6-3.2-3.7c-9.1-8.3-27.8-11.5-35.8-1.2
				c-3.1,4-3.9,9.4-3.8,14.5c0.3,11.3,2.6,21.9,2.9,33.2c0.6,33.7,20.6,59.3,40.3,85.3c16.3,21.4,32.9,41.5,53.4,59.1
				c13.6,11.6,32.8,18.8,52.2,20.2c19.8,1.4,39.9-3.4,54.2-16"/>
			<path class="st8" d="M485.8,970c3.5,6.5,7.1,13.1,11.2,19.4c8.3,13,15.8,26.8,18.3,42.2c1.8,11,1,22.3,1.7,33.4
				c1.5,24.5,10.2,48.5,24.9,68.2c13.9,18.7,33.2,34.1,41.8,55.8c2.7,6.8,4.2,14,8.2,20.1c5.1,7.7,15.5,18.9,25.2,14.9
				c10.8-4.4,23-10.4,25.8-21.8c1.8-7.3-1-14.9-4-21.9c-4.8-11.2-10.1-22.2-14.5-33.4c-5.3-13.6-9.5-27.5-10.1-42.5
				c-1.1-26.8,2.7-53.4,1.8-80.2"/>
			<path class="st8" d="M624.3,1146.8c19.6,10,40.9,16.6,62.7,19.6"/>
			<path class="st8" d="M571.9,774.9c3.7-5.5,8.3-10.4,13.7-14.2c6.4-4.6,14.2-7.8,21.9-6.7c4.2,0.6,8.2,2.5,11.1,5.6
				c4.2,4.4,5.6,10.8,5.7,16.8c0.2,11.6-4.5,23-12.4,31.5"/>
			<path class="st8" d="M560.3,833.7c20.2-9,44.6-7.8,63.8,3.1c19.2,10.9,32.8,31.3,35.4,53.2c0.8,7.1,0.4,14.8-4,20.4
				c-4.2,5.3-11,7.5-17.5,9.3c-18,5-37.4,8.5-55,2.2c-19.6-7-33-24.8-45.2-41.7"/>
			<path class="st8" d="M565.6,849.3c3.9-0.4,7.8-0.9,11.7-1.3c5.3-0.6,10.6-1.2,15.8-0.5c11.5,1.4,21.8,8.7,28.4,18.3
				c6.6,9.5,9.7,21.1,10.8,32.7"/>
			<path class="st8" d="M568,874c13.6,6.8,29.6,5.2,44.7,3.6"/>
			<path class="st8" d="M345.2,784.7c4.2,8.5,16.7,11.3,24.1,5.5"/>
			<path class="st8" d="M492,813.6c-0.2-2.1-0.8-4.4-2.3-5.9c-1.3-1.2-3.1-1.7-4.8-2.2c-10-2.5-52.2-10.2-53.3,7.5
				c-0.3,4.4,2.1,8.5,4.6,12c5.6,7.8,12.8,14.6,21.2,19.3c5.5,3.1,12.1,5.2,18.1,3.2c4.3-1.4,7.6-4.8,10.1-8.5
				C490.7,831.7,493,822.5,492,813.6z"/>
			<path class="st8" d="M973.6,1079.2L973.6,1079.2c11.9-5.2,25.3-10.3,31-22c4.7-9.6,2.2-22.2-5.8-29.2c-4.7-4.2-11.6-6.5-17.6-4.5
				c-2.9,1-5.4,2.8-7.7,4.8c-1.3,1.1-2.5,2.3-3.7,3.5"/>
		</g>
	</g>
</g>
<g id="Layer_7" class="st3">
	<g id="XMLID_2_" class="st9">
		<g>
			<path class="st6" d="M960.3,801.6c-2.7,0.4-5.5,1.4-7.2,3.6c-1.3,1.7-1.8,3.8-2.3,5.9c-0.7,3.6-1.2,7.2-1.5,10.8
				c3.7,3.1,8.2,5.3,13.1,7.5c9.4,3,18.8,0.5,26.6-4.8c-1.5-4.3-3.5-8.4-6.2-12C977.6,805.5,969,800.4,960.3,801.6z"/>
			<path class="st7" d="M962.5,829.3c-4.9-2.2-9.5-4.4-13.1-7.5c-0.2,2.2-0.3,4.5-0.4,6.8c6,3.9,11.8,8.1,17.3,12.8
				c6.1,5.2,11.9,10.9,17.2,17c0.4-0.3,0.9-0.6,1.3-0.9c2.5-1.8,5.2-3.6,6.8-6.2c2.6-4.3,1.8-9.7,0.9-14.6
				c-0.8-4.1-1.8-8.2-3.2-12.2C981.3,829.8,971.9,832.3,962.5,829.3z"/>
			<path d="M255.8,763.4c-0.6-0.4-1.1-0.9-1.7-1.3c-1.2-0.4-2.4-0.7-3.6-0.7c1.2,0,2.4,0.3,3.6,0.7c-2.3-1.8-4.4-3.9-6.5-6
				c-0.3,0.1-0.5,0.3-0.8,0.4c-8.4-5.4-17.5-8.2-24.4,0.6c-4.8,6.2-4.1,16.6-2.3,26.8c3,2.3,6.2,4.4,9.5,5.9c3.4,1,7,1.2,11-0.4
				c-3.9,1.6-7.5,1.4-11,0.4c3.2,1.4,6.5,2.2,9.9,2.2c0.9-0.2,1.8-0.4,2.7-0.7c-1.2,0.1-2.4,0.2-3.7,0.1c1.3,0.1,2.5,0.1,3.7-0.1
				c1.5-0.5,3-1.1,4.3-1.9c-1.4,0.8-2.8,1.4-4.3,1.9c2-0.2,3.9-0.7,5.7-1.5c4.1-2.5,7.3-6.6,8.9-11.2c-2.1-2.1-4.2-4.2-6.3-6.2
				c2.1,2.1,4.2,4.1,6.3,6.2C258.5,773.6,258.5,768.1,255.8,763.4z"/>
			<path d="M239.4,791.9c1.6,0,3.3-0.2,5-0.6c1.2-0.4,2.3-0.9,3.4-1.6c-1.8,0.8-3.7,1.3-5.7,1.5
				C241.3,791.5,240.4,791.7,239.4,791.9z"/>
			<path d="M258.2,780c-0.5-0.5-1-1-1.5-1.5c-1.6,4.6-4.8,8.7-8.9,11.2C252.4,787.8,255.9,784.2,258.2,780z"/>
			<path class="st10" d="M229.5,789.7c-3.3-1.5-6.4-3.5-9.5-5.9c0.1,0.4,0.2,0.8,0.2,1.2C223.3,787,226.3,788.8,229.5,789.7z"/>
			<path d="M239.4,791.9c-3.5,0-6.8-0.8-9.9-2.2c-3.2-1-6.2-2.7-9.2-4.6c0.2,1,0.4,2,0.6,3C226.1,791.7,233.1,793.1,239.4,791.9z"/>
			<path class="st6" d="M376.5,881.3C327.9,858.9,295,817.2,258.2,780c-2.3,4.1-5.9,7.7-10.4,9.7c-1.1,0.6-2.2,1.2-3.4,1.6
				c-1.7,0.4-3.4,0.6-5,0.6c-6.4,1.2-13.3-0.2-18.6-3.9c1.3,6.4,2.8,12.5,3.4,17c2.9,22.5,16.2,44.2,31.3,60.6
				c14.1,15.3,31.1,27.7,48.6,38.9c10.3,6.6,20.9,12.9,32.3,17.5c0.6,0.2,1.2,0.5,1.8,0.7C358.2,916,379.7,905.5,376.5,881.3z"/>
			<path class="st6" d="M346.5,1021.3c3.4-12-3.6-19.1-13.4-23.5c-10.6,3-21.4,5.4-32.2,7.1c-8.1,1.3-17.6,3.1-21.2,10.5
				c-3.7,7.5,1.1,16.7,7.6,22c11.5,9.6,26.3,11.7,41.5,10.5C336.5,1040.1,342.9,1031.4,346.5,1021.3z"/>
			<path class="st6" d="M1108.9,1089.3c-3.5-16.8-7.3-34.3-18.2-47.5c-8.4-10-20.1-16.5-30.9-24c-8.4-5.8-16.3-12.3-23.6-19.5
				c-3.5,0.4-6.9,1.6-9.7,3.9c-7,7-7,16-6,25c3.4,17.5,8.4,33.8,14.3,49.7c7.9,4.2,15.3,9,21.9,15c8,7.2,14.9,16.1,24.6,20.7
				c9.7,4.6,23.8,2.6,27.8-7.4C1111,1100.3,1109.9,1094.6,1108.9,1089.3z"/>
			<path class="st7" d="M1026.5,1002.3c2.7-2.3,6.1-3.5,9.7-3.9c-4.7-4.6-9.2-9.4-13.4-14.5c-3.6-4.4-7.1-9-8.7-14.5
				c-2.2-7.5-0.5-15.5,0.2-23.2c3-31.8-9.9-63.3-30.8-87.8c-5.3-6.2-11-11.9-17.2-17c-5.5-4.6-11.3-8.9-17.3-12.8
				c-27.3-17.8-59.2-28.3-91.3-35.2c-97.6-21.2-199-12.1-297.8,4.2c-10.9-15.7-29.6-25.7-48.7-27.7c-1.1-0.1-2.1-0.2-3.2-0.2
				c-5.7-4.6-11.5-9-17.5-13.2c-15.4-10.8-31.9-20-49.1-27.6c-3.3-1.5-6.6-2.8-10-4.2c-12.5-4.9-25.4-9-38.8-10.5
				c-21-2.4-42.1,1.7-62.4,7.5c-28.8,8.2-56.6,19.7-82.8,34.4c2.1,2.1,4.3,4.2,6.5,6c0.4,0.1,0.8,0.3,1.2,0.5
				c-0.8-1.1-1.7-2.2-2.8-3.2c1.1,1,2,2.1,2.8,3.2c2.1,1,4,2.4,5.1,3.7c0,0,0.1,0.1,0.1,0.1c0,0-0.1-0.1-0.1-0.1
				c0.7,0.8,1.1,1.5,1.1,2.1c0,3.9-1.1,8.1-3.2,11.7c36.7,37.2,69.6,78.8,118.2,101.3c3.2,24.2-18.2,34.7-38.2,41.6
				c13.1,5.3,26.5,10.1,40.6,11.7c6.5,0.7,12.9,1.5,19.4,2.2c5,8.4,8.5,17.6,10.6,27.1c-23.4,14.9-49,26.3-75.8,33.9
				c9.8,4.4,16.8,11.5,13.4,23.5c-3.6,10.1-10,18.8-17.8,26.5c9.7-0.8,19.5-2.9,28.6-5.4c39.5-10.6,78.4-24.6,119.2-28.6
				c2-0.2,4.1-0.4,6.2-0.5c21.7-4.4,44.1,0.5,64.8-7c91-33,186-54,281-29c3.2,0.8,6.3,1.8,9.3,2.9c-2.5-2.5-5-5.1-7.3-7.9
				c2.3,2.8,4.8,5.4,7.3,7.9c16.1,6.2,29.8,17.4,43.1,29.2c9.1,4.7,18.3,9,27.3,13.7c0.7,0.3,1.5,0.7,2.2,1
				c17,7.8,34.2,15.4,51.4,22.6c2.5-0.5,5.1-0.5,7.6,0.6c-1,0-2,0-3,0c1,0,2,0,3,0c-2.6-1.1-5.1-1.1-7.6-0.6
				c11.9,5,23.9,9.8,35.9,14.4c12.5,4.8,25.2,9.6,37,15.9c-5.9-15.9-10.9-32.2-14.3-49.7C1019.5,1018.3,1019.5,1009.3,1026.5,1002.3
				z M376.2,805.7c-0.6,4.9-1.9,10-5.3,13.6c-5.1,5.4-13.4,6-20.7,4.7c-10-1.7-19.4-6.4-26.7-13.4c-5.6-5.3-13-16.7-7.6-24.3
				c5.4-7.6,22.6-11.7,31.1-13.6c4-0.9,8.2-1.5,12.2-0.6c6.7,1.4,12.2,6.8,14.8,13.2C376.8,791.7,377,798.8,376.2,805.7z"/>
			<path class="st7" d="M254,762c0.6,0.5,1.1,0.9,1.7,1.3c-0.2-0.3-0.4-0.6-0.5-0.9C254.8,762.3,254.4,762.2,254,762z"/>
			<path class="st7" d="M255.2,762.5c0.2,0.3,0.4,0.6,0.5,0.9c1.5,1.1,3,2,4.6,2.8C259.2,764.9,257.3,763.5,255.2,762.5z"/>
			<path d="M260.3,766.2c-1.6-0.8-3.1-1.8-4.6-2.8c2.7,4.7,2.7,10.2,1,15.2c0.5,0.5,1,1,1.5,1.5c2.1-3.7,3.2-7.8,3.2-11.7
				C261.5,767.8,261,767,260.3,766.2z"/>
			<path class="st7" d="M899.4,1025.7c2.7-1,5.3-2,7.9-3c0.3,0.1,0.6,0.3,0.9,0.4c-9-4.6-18.2-9-27.3-13.7
				C887,1014.8,893.1,1020.4,899.4,1025.7z"/>
			<path class="st7" d="M837.7,980.2c12.6,12.4,27.6,21.2,43.1,29.2C867.5,997.6,853.9,986.4,837.7,980.2z"/>
			<path class="st6" d="M837.7,980.2c-3-1.2-6.1-2.1-9.3-2.9c-95-25-190-4-281,29c-20.7,7.5-43.1,2.7-64.8,7
				c0.8-0.1,1.7-0.1,2.5-0.2c36.3,12.1,73.5,16.7,111.4,25.8c52.7,12.7,113,19.3,167.1,16.2c41.1-2.3,81.4-12.2,120.7-24.4
				c5-1.6,10.1-3.2,15.1-5c-6.3-5.3-12.4-10.9-18.5-16.3C865.4,1001.4,850.4,992.6,837.7,980.2z"/>
			<path class="st7" d="M489.8,707.2c8.1,15,8.2,33.9,0.8,49.2c-15.4-10.8-31.9-20-49.1-27.6c2.7-5,5.6-9.9,9.2-14.3
				c5.7-7.1,13.2-13.2,22.1-15.4c3.2-0.8,6.6-1.1,9.6,0.2C485.7,700.8,488,704,489.8,707.2z"/>
			<path class="st5" d="M354,777c-4.1-0.7-8.2,1.4-10.6,5.3c-3,8,4,16,13,14c2-1,5-3,5-5c1-3.5,0.2-7.6-1.8-10.7
				C358.2,779.1,356.3,777.9,354,777z"/>
			<path class="st10" d="M374.1,785.4c-2.7-6.3-8.1-11.8-14.8-13.2c-4-0.8-8.2-0.2-12.2,0.6c-8.5,1.9-25.7,6-31.1,13.6
				c-5.4,7.6,2,19,7.6,24.3c7.4,6.9,16.8,11.6,26.7,13.4c7.3,1.3,15.6,0.7,20.7-4.7c3.4-3.6,4.7-8.7,5.3-13.6
				C377,798.8,376.8,791.7,374.1,785.4z M363.5,796.3c1.3-5.9,0-11.8-3.8-15.7c2,3.1,2.8,7.2,1.8,10.7c0,2-3,4-5,5c-9,2-16-6-13-14
				c2.3-3.9,6.5-5.9,10.6-5.3c-0.8-0.3-1.7-0.5-2.6-0.7c0.9,0.2,1.7,0.4,2.6,0.7c1.2,0.2,2.3,0.6,3.4,1.3c-1.1-0.7-2.3-1.1-3.4-1.3
				c2.3,0.8,4.2,2,5.6,3.6c-2-3.1-5.2-5.3-9.2-5.3c4,0,7.2,2.2,9.2,5.3C363.5,784.5,364.8,790.4,363.5,796.3z"/>
		</g>
		<g>
			<path class="st8" d="M559.9,797.6c98.8-16.3,200.2-25.4,297.8-4.2c32,7,64,17.5,91.3,35.2c6,3.9,11.8,8.1,17.3,12.8
				c6.1,5.2,11.9,10.9,17.2,17c20.9,24.5,33.8,56,30.8,87.8c-0.7,7.8-2.4,15.7-0.2,23.2c1.6,5.4,5.1,10.1,8.7,14.5
				c10.7,12.9,23.2,24.4,37,34c10.8,7.4,22.5,13.9,30.9,24c11,13.2,14.8,30.7,18.2,47.5c1.1,5.3,2.2,11,0.2,16
				c-4,10-18.1,12-27.8,7.4c-9.7-4.6-16.6-13.4-24.6-20.6c-16.5-15-38.1-22.9-58.9-30.9c-29.5-11.4-58.7-23.8-87.4-37
				c-1-0.5-2.1-1-3.1-1.5c-23.9-11.1-47.6-23.2-67.3-40.6c-20.6-18.2-36.6-43-39-70.3"/>
			<path class="st8" d="M484,889.7c-18.8,16.5-37.6,32.2-59.6,44.3c-6.8,3.8-13.6,4.2-21.3,3.3c-1.6-0.2-3.2-0.4-4.9-0.6
				c-6.5-0.7-12.9-1.5-19.4-2.2c-14.8-1.7-28.7-6.9-42.4-12.5c-11.3-4.6-21.9-10.9-32.3-17.5c-17.5-11.2-34.5-23.6-48.6-38.9
				c-15.1-16.4-28.4-38.1-31.3-60.6c-1.6-12.6-10.5-37-2-48c6.9-8.9,16-6,24.4-0.6c6.4,4.1,12.4,9.6,16.8,12.5"/>
			<path class="st8" d="M441.4,728.9c2.7-5,5.6-9.9,9.2-14.3c5.7-7.1,13.2-13.2,22.1-15.4c3.2-0.8,6.6-1.1,9.6,0.2
				c3.4,1.5,5.7,4.7,7.4,7.9c8.1,15,8.2,33.9,0.8,49.2"/>
			<path class="st8" d="M452.1,850.7c1.2,4.4,5.7,6.8,9.9,8.5c31.7,12.6,70.4,5.3,95.4-17.9c4-3.8,7.8-8,9.6-13.2
				c2.6-7.6,0.7-16-2.8-23.2c-1.2-2.5-2.7-5-4.3-7.3c-10.9-15.7-29.5-25.7-48.7-27.7c-1.1-0.1-2.1-0.2-3.2-0.2
				c-21-1.2-42,6.2-59.2,18.3"/>
			<path class="st8" d="M508,769.7c-5.7-4.6-11.5-9-17.5-13.2c-15.4-10.8-31.9-20-49.1-27.6c-3.3-1.5-6.6-2.8-10-4.2
				c-12.5-4.9-25.4-9-38.8-10.5c-21-2.4-42.1,1.7-62.4,7.5c-29.1,8.2-57.2,20-83.5,34.8"/>
			<path class="st8" d="M586.8,991.5c-28.2,21.1-66.1,19.1-101.6,21.6c-2.9,0.2-5.8,0.4-8.7,0.7c-40.7,4-79.6,18.1-119.2,28.6
				c-23.6,6.3-51.4,10.5-70.1-5.1c-6.4-5.4-11.3-14.5-7.6-22c3.6-7.4,13.1-9.2,21.2-10.5c38.3-6,75.3-20.2,108-41
				c15.2-9.7,29.5-20.8,42.6-33.2"/>
			<path class="st8" d="M398.2,936.8c5,8.4,8.5,17.6,10.6,27.1"/>
			<path class="st8" d="M485.1,1013.2c36.3,12,73.5,16.7,111.4,25.8c52.7,12.7,113,19.3,167.1,16.2c41.1-2.3,81.4-12.2,120.7-24.4
				c7.7-2.4,15.5-4.9,23-8.1"/>
			<path class="st8" d="M949,828.6c0.1-5.9,0.7-11.8,1.9-17.5c0.4-2.1,1-4.2,2.3-5.9c1.7-2.2,4.5-3.2,7.2-3.6
				c8.7-1.2,17.3,3.9,22.6,10.8c5.3,7,7.7,15.7,9.4,24.2c1,4.9,1.7,10.3-0.9,14.6c-1.6,2.6-4.2,4.5-6.8,6.2
				c-0.4,0.3-0.9,0.6-1.3,0.9"/>
			<path class="st8" d="M465.4,801.4c1-0.3,2-0.5,3-0.8c11.8-2.9,24.5-3.2,36.1,0.5c11.6,3.6,22.2,11.4,28.1,22"/>
			<path class="st8" d="M475.7,830.9c14,0.3,28.1-1.3,41.7-4.6"/>
			<path class="st8" d="M374.1,785.4c-2.7-6.3-8.1-11.8-14.8-13.2c-4-0.8-8.2-0.2-12.2,0.6c-8.5,1.9-25.7,6-31.1,13.6
				c-5.4,7.6,2,19,7.6,24.3c7.4,6.9,16.8,11.6,26.7,13.4c7.3,1.3,15.6,0.7,20.7-4.7c3.4-3.6,4.7-8.7,5.3-13.6
				C377,798.8,376.8,791.7,374.1,785.4z M361.5,791.3c0,2-3,4-5,5c-9,2-16-6-13-14c3-5,9-7,14-4c-5-3-11-1-14,4c-3,8,4,16,13,14
				C358.5,795.3,361.5,793.3,361.5,791.3c2-7-3-16-11-16C358.5,775.3,363.5,784.3,361.5,791.3z"/>
			<path class="st8" d="M227.2,787.7c-0.2,0.5-0.3,1-0.5,1.5c2.7,2.2,6.4,2.6,9.9,2.6c3,0,6-0.1,8.8-1.2s5.3-3.2,6.2-6"/>
		</g>
	</g>
</g>
<g id="Layer_8">
	<ellipse class="st11" cx="721.8" cy="665.3" rx="606.9" ry="590"/>
	<ellipse class="st5" cx="529.1" cy="317" rx="142.9" ry="79.5"/>
	<ellipse class="st5" cx="390.6" cy="402.1" rx="48.8" ry="25.8"/>
</g>
</svg>
